{"title":"The Mummy-III Tomb Of The Dragon Emperor (2008) 720p Blu-Ray x26","uid":12143384,"size":1024572033,"categoryP":"video","categoryS":"movies","magnet":"?xt=urn:btih:cc486b74bd0de7fed322a714d8a02bf02f36ed6a&amp;dn=The+Mummy-III+Tomb+Of+The+Dragon+Emperor+%282008%29+720p+Blu-Ray+x26&amp;tr=udp%3A%2F%2Ftracker.openbittorrent.com%3A80&amp;tr=udp%3A%2F%2Fopen.demonii.com%3A1337&amp;tr=udp%3A%2F%2Ftracker.coppersurfer.tk%3A6969&amp;tr=udp%3A%2F%2Fexodus.desync.com%3A6969","seeders":26,"leechers":16,"uploader":"praneet_gupta777","files":2,"time":1437404283,"description":"[center]\n[b][size=7]The Mummy-III Tomb Of The Dragon Emperor (2008) 720p Blu-Ray x264 [Dual-Audio] [English 5.1 + Hindi 2.0] Esubs [PKG][/size][/b]\n\n\n\n\n\n[img]http://extraimago.com/images/2015/07/20/The_Mummy_Tomb_of_the_Dragon_Emperor_front_edited1.jpg[/img]\n\n\n[img]http://extraimago.com/images/2015/07/20/Untitled.png[/img]\n\n\n\n\n[img]http://img9.uploadhouse.com/fileuploads/15981/15981250a2a3770f9f004bcdf00afac92833ebdb.png[/img]\n\n\n[quote]\n\n\nGeneral\nUnique ID                   : 244561456153054784015830465284700620051 (0xB7FCD2BAEDD8467EBAA50E39FBBBC513)\nComplete name               : G:The Mummy-III Tomb Of The Dragon Emperor (2008) 720p Blu-Ray x264 [Dual-Audio] [English 5.1 + Hindi 2.0] Esubs [PKG]The Mummy-III Tomb Of The Dragon Emperor (2008) 720p Blu-Ray x264 [Dual-Audio] [English 5.1 + Hindi 2.0] Esubs [PKG].mkv\nFormat                      : Matroska\nFormat version              : Version 4 / Version 2\nFile size                   : 974 MiB\nDuration                    : 1h 51mn\nOverall bit rate            : 1 220 Kbps\nMovie name                  : The Mummy-III Tomb Of The Dragon Emperor (2008) 720p Blu-Ray x264 [Dual-Audio] [English 5.1 + Hindi 2.0] Esubs [PKG]\nEncoded date                : UTC 2015-07-18 18:28:00\nWriting application         : mkvmerge v7.7.0 ('Six Voices') 64bit built on Feb 28 2015 23:39:33\nDURATION                    : 01:40:47.120000000\nNUMBER_OF_FRAMES            : 927\nNUMBER_OF_BYTES             : 32904\n\nVideo\nID                          : 1\nFormat                      : AVC\nFormat/Info                 : Advanced Video Codec\nFormat profile              : &lt;a class=&quot;__cf_email__&quot; href=&quot;/cdn-cgi/l/email-protection&quot; data-cfemail=&quot;7931101e1139354d5748&quot;&gt;[email&amp;#160;protected]&lt;/a&gt;&lt;script data-cfhash='f9e31' type=&quot;text/javascript&quot;&gt;\n/* &lt;![CDATA[ */!function(){try{var t=&quot;currentScript&quot;in document?document.currentScript:function(){for(var t=document.getElementsByTagName(&quot;script&quot;),e=t.length;e--;)if(t[e].getAttribute(&quot;data-cfhash&quot;))return t[e]}();if(t&amp;&amp;t.previousSibling){var e,r,n,i,c=t.previousSibling,a=c.getAttribute(&quot;data-cfemail&quot;);if(a){for(e=&quot;&quot;,r=parseInt(a.substr(0,2),16),n=2;a.length-n;n+=2)i=parseInt(a.substr(n,2),16)^r,e+=String.fromCharCode(i);e=document.createTextNode(e),c.parentNode.replaceChild(e,c)}t.parentNode.removeChild(t);}}catch(u){}}()/* ]]&gt; */&lt;/script&gt;\nFormat settings, CABAC      : Yes\nFormat settings, ReFrames   : 4 frames\nCodec ID                    : V_MPEG4/ISO/AVC\nDuration                    : 1h 51mn\nBit rate                    : 811 Kbps\nWidth                       : 1 280 pixels\nHeight                      : 536 pixels\nDisplay aspect ratio        : 2.40:1\nFrame rate mode             : Constant\nFrame rate                  : 23.976 fps\nColor space                 : YUV\nChroma subsampling          : 4:2:0\nBit depth                   : 8 bits\nScan type                   : Progressive\nBits/(Pixel*Frame)          : 0.049\nStream size                 : 623 MiB (64%)\nTitle                       : [PKG]\nWriting library             : x264 core 142 r2431 ac76440\nEncoding settings           : cabac=1 / ref=3 / deblock=1:-1:-1 / analyse=0x3:0x113 / me=umh / subme=9 / psy=1 / psy_rd=0.00:0.00 / mixed_ref=1 / me_range=32 / chroma_me=1 / trellis=2 / 8x8dct=1 / cqm=0 / deadzone=21,11 / fast_pskip=0 / chroma_qp_offset=0 / threads=12 / lookahead_threads=1 / sliced_threads=0 / nr=0 / decimate=1 / interlaced=0 / bluray_compat=0 / constrained_intra=0 / bframes=3 / b_pyramid=2 / b_adapt=2 / b_bias=0 / direct=3 / weightb=1 / open_gop=0 / weightp=2 / keyint=250 / keyint_min=25 / scenecut=40 / intra_refresh=0 / rc_lookahead=60 / rc=2pass / mbtree=1 / bitrate=811 / ratetol=1.0 / qcomp=0.60 / qpmin=10 / qpmax=51 / qpstep=4 / cplxblur=20.0 / qblur=0.5 / vbv_maxrate=62500 / vbv_bufsize=78125 / nal_hrd=none / filler=0 / ip_ratio=1.40 / aq=1:1.00\nDefault                     : Yes\nForced                      : No\n\nAudio #1\nID                          : 2\nFormat                      : AC-3\nFormat/Info                 : Audio Coding 3\nMode extension              : CM (complete main)\nFormat settings, Endianness : Big\nCodec ID                    : A_AC3\nDuration                    : 1h 51mn\nBit rate mode               : Constant\nBit rate                    : 224 Kbps\nChannel(s)                  : 2 channels\nChannel positions           : Front: L R\nSampling rate               : 48.0 KHz\nBit depth                   : 16 bits\nCompression mode            : Lossy\nDelay relative to video     : 3s 0ms\nStream size                 : 179 MiB (18%)\nTitle                       : [PKG]\nLanguage                    : Hindi\nDefault                     : Yes\nForced                      : Yes\n\nAudio #2\nID                          : 3\nFormat                      : AC-3\nFormat/Info                 : Audio Coding 3\nMode extension              : CM (complete main)\nFormat settings, Endianness : Big\nCodec ID                    : A_AC3\nDuration                    : 1h 51mn\nBit rate mode               : Constant\nBit rate                    : 192 Kbps\nChannel(s)                  : 6 channels\nChannel positions           : Front: L C R, Side: L R, LFE\nSampling rate               : 48.0 KHz\nBit depth                   : 16 bits\nCompression mode            : Lossy\nStream size                 : 153 MiB (16%)\nTitle                       : [PKG]\nLanguage                    : English\nDefault                     : No\nForced                      : No\n\nText\nID                          : 4\nFormat                      : UTF-8\nCodec ID                    : S_TEXT/UTF8\nCodec ID/Info               : UTF-8 Plain Text\nTitle                       : [PKG]\nLanguage                    : English\nDefault                     : Yes\nForced                      : No\n\nMenu\n00:00:00.000                : en: Search for Immortality\n00:05:24.074                : en: Cursed by the Wizard\n00:09:52.133                : en: Retired Life\n00:14:15.480                : en: Like Father, Like Son\n00:19:13.402                : en: Finding the Tomb\n00:24:33.681                : en: One Last Assignment\n00:30:57.647                : en: Bringing Order\n00:35:30.962                : en: Rise of the Emperor\n00:42:16.367                : en: Happy New Year\n00:48:17.686                : en: Family Meeting\n00:52:26.894                : en: Not My Type\n00:57:28.528                : en: Defending the Gateway\n01:02:40.590                : en: Atop the Golden Tower\n01:09:52.230                : en: Shangri-La\n01:15:54.216                : en: Reaching the Pool\n01:21:00.981                : en: Awaken the Army\n01:25:33.420                : en: Prepare for Battle\n01:33:54.963                : en: Divide and Conquer\n01:39:53.946                : en: The Next Adventure\n01:41:28.499                : en: End Credits\n\n\n[color=navy][size=6][b]SAMPLE WITHIN TORRENT[/b][/size][/color]\n\n\n\n\n\n[img]http://icons.iconarchive.com/icons/tribalmarkings/colorflow/256/screenshots-icon.png[/img]\n\n\n\n[img]http://extraimago.com/images/2015/07/20/vlcsnap-2015-07-20-11h21m05s33.png[/img]\n\n[img]http://extraimago.com/images/2015/07/20/vlcsnap-2015-07-20-11h21m39s119.png[/img]\n\n[img]http://extraimago.com/images/2015/07/20/vlcsnap-2015-07-20-11h22m26s61.png[/img]\n\n[img]http://extraimago.com/images/2015/07/20/vlcsnap-2015-07-20-11h33m33s96.png[/img]\n\n[img]http://extraimago.com/images/2015/07/20/TheMummy-IIITombOfTheDragonEmperor2008720pBlu-Rayx264Dual-AudioEnglish5.1Hindi2.0EsubsPKG.mkv_thumbs_2015.07.20_11.14.07.jpg[/img]\n\n\n[/center]","torrent":{"xt":"urn:btih:cc486b74bd0de7fed322a714d8a02bf02f36ed6a","amp;dn":"The+Mummy-III+Tomb+Of+The+Dragon+Emperor+%282008%29+720p+Blu-Ray+x26","amp;tr":["udp%3A%2F%2Ftracker.openbittorrent.com%3A80","udp%3A%2F%2Fopen.demonii.com%3A1337","udp%3A%2F%2Ftracker.coppersurfer.tk%3A6969","udp%3A%2F%2Fexodus.desync.com%3A6969"],"infoHash":"cc486b74bd0de7fed322a714d8a02bf02f36ed6a","infoHashBuffer":{"type":"Buffer","data":[204,72,107,116,189,13,231,254,211,34,167,20,216,160,43,240,47,54,237,106]},"announce":[],"urlList":[]}}